<?xml version="1.0" encoding="iso-8859-1"?>
<!-- Generator: Adobe Illustrator 19.0.0, SVG Export Plug-In . SVG Version: 6.00 Build 0)  -->
<svg version="1.1" id="Capa_1" xmlns="http://www.w3.org/2000/svg" xmlns:xlink="http://www.w3.org/1999/xlink" x="0px" y="0px"
	 viewBox="0 0 507.989 507.989" style="enable-background:new 0 0 507.989 507.989;" xml:space="preserve">
<g>
	<g>
		<path d="M493.5,166.744c-9.7-10.7-44.8-29-75.3,5.8l-23.2-23.1l-18.2,18.2V0.044h-241L0,135.944v372h376.8v-155l116.7-116.7
			C504.2,226.544,519.9,195.744,493.5,166.744z M131.1,28.044v103.1H28L131.1,28.044z M360.5,491.644H16.4v-344.1h131.1v-131.1h213
			v167.5l-52.3,52.3l11.6,11.6l75.3-75.3l11.6,11.6L208,382.744l-20.8,90.4l90.4-20.9l82.9-82.9V491.644z M220.1,403.144l37,37
			l-48.1,11.1L220.1,403.144z M273.4,433.244l-46.3-46.3l191.2-191.2l46.3,46.3L273.4,433.244z M481.9,224.744l-5.8,5.8l-46.3-46.3
			l5.8-5.8c12.4-12.4,34-12.4,46.3,0C498.8,195.244,489.9,217.744,481.9,224.744z"/>
	</g>
</g>
<g>
	<g>
		<rect x="317.553" y="326.409" transform="matrix(0.7071 -0.7071 0.7071 0.7071 -141.1933 328.3463)" width="16.4" height="16.4"/>
	</g>
</g>
<g>
	<g>
		<rect x="340.744" y="303.158" transform="matrix(0.7071 -0.7071 0.7071 0.7071 -117.9599 337.9351)" width="16.4" height="16.4"/>
	</g>
</g>
<g>
	<g>
		<rect x="363.908" y="280.042" transform="matrix(0.707 -0.7072 0.7072 0.707 -94.8216 347.6107)" width="16.4" height="16.4"/>
	</g>
</g>
<g>
	<g>
		<rect x="41" y="450.644" width="122.9" height="16.4"/>
	</g>
</g>
<g>
	<g>
		<rect x="237.6" y="73.844" width="16.4" height="16.4"/>
	</g>
</g>
<g>
	<g>
		<rect x="270.3" y="73.844" width="16.4" height="16.4"/>
	</g>
</g>
<g>
	<g>
		<rect x="204.8" y="73.844" width="16.4" height="16.4"/>
	</g>
</g>
<g>
	<g>
		<rect x="41" y="204.844" width="237.6" height="16.4"/>
	</g>
</g>
<g>
	<g>
		<rect x="41" y="286.844" width="213" height="16.4"/>
	</g>
</g>
<g>
	<g>
		<rect x="41" y="368.744" width="147.5" height="16.4"/>
	</g>
</g>
<g>
</g>
<g>
</g>
<g>
</g>
<g>
</g>
<g>
</g>
<g>
</g>
<g>
</g>
<g>
</g>
<g>
</g>
<g>
</g>
<g>
</g>
<g>
</g>
<g>
</g>
<g>
</g>
<g>
</g>
</svg>
