<?xml version="1.0"?>
<svg xmlns="http://www.w3.org/2000/svg" id="Layer_1" data-name="Layer 1" viewBox="0 0 128 128" width="512" height="512"><path d="M107.209,63.809a1.658,1.658,0,0,0-.1-.156.151.151,0,0,0-.015-.057L93.222,41.729a1.749,1.749,0,0,0-1.478-.812H36.255a1.748,1.748,0,0,0-1.477.812L20.906,63.6c-.01.015,0,.029-.007.044a1.477,1.477,0,0,0-.109.169,1.75,1.75,0,0,0,.274,1.875L62.681,113.4a1.75,1.75,0,0,0,2.638,0l41.616-47.716A1.75,1.75,0,0,0,107.209,63.809ZM67.182,44.417h21.38l-10.69,16.85ZM74.69,62.783H53.31L64,45.933ZM50.128,61.267l-10.69-16.85H60.817Zm25.413,5.016L64,105.98l-11.541-39.7Zm16.2-20.35,10.69,16.85H81.055Zm-55.489,0,10.69,16.85H25.566Zm12.559,20.35,11.291,38.838L26.231,66.283ZM67.9,105.121,79.186,66.283h22.582Z"/><path d="M64,30.583a1.75,1.75,0,0,0,1.75-1.75V15.75a1.75,1.75,0,0,0-3.5,0V28.833A1.75,1.75,0,0,0,64,30.583Z"/><path d="M73.781,34.635a1.745,1.745,0,0,0,1.238-.513l9.251-9.251A1.75,1.75,0,1,0,81.8,22.4l-9.252,9.252a1.75,1.75,0,0,0,1.237,2.987Z"/><path d="M52.981,34.122a1.75,1.75,0,1,0,2.475-2.474L46.2,22.4a1.75,1.75,0,1,0-2.475,2.475Z"/></svg>
